<svg width="34" height="35" viewBox="0 0 34 35" fill="none" xmlns="http://www.w3.org/2000/svg">
<path fill-rule="evenodd" clip-rule="evenodd" d="M9.71644 5.10042C10.9612 5.10042 12.0025 5.98714 12.2408 7.16253C11.4736 6.9011 10.6507 6.7599 9.79581 6.7599H9.64248C8.78574 6.7599 7.96124 6.90182 7.19191 7.16457C7.43041 5.9878 8.47112 5.10042 9.71644 5.10042ZM9.64255 7.71037H9.79594C13.4707 7.71037 16.46 10.6992 16.46 14.3739C16.46 14.6815 16.46 15.0237 16.4478 15.3605C13.144 14.6047 11.8368 13.8688 11.2937 11.6872C11.2674 11.5813 11.2055 11.4878 11.1183 11.4222C11.0311 11.3567 10.924 11.3232 10.815 11.3274C10.7062 11.3313 10.6021 11.3726 10.52 11.4441C10.4379 11.5157 10.3829 11.6132 10.3642 11.7205C10.2297 12.4925 9.29002 13.3622 7.91174 13.9903C6.46827 14.6482 4.69198 14.9823 2.97613 14.9273C2.97778 14.7521 2.9789 14.5674 2.9789 14.374C2.97896 10.6992 5.96848 7.71037 9.64255 7.71037ZM18.3789 28.3983V33.1043H1.05469V28.3983C1.05469 25.8032 2.88312 23.6916 5.13119 23.6916H6.88652C7.0198 24.3379 7.4221 25.1996 8.00264 25.8283C8.52141 26.3892 9.11415 26.6858 9.71637 26.6858C10.3196 26.6858 10.9121 26.3892 11.4302 25.8283C12.0108 25.2003 12.414 24.338 12.547 23.6916H14.3024C16.5506 23.6916 18.3788 25.8032 18.3789 28.3983ZM10.7324 25.1832C11.2013 24.6754 11.5035 23.9849 11.606 23.5558C11.0017 23.7866 10.3663 23.9075 9.71908 23.9075C9.07071 23.9075 8.43256 23.7859 7.82677 23.5537C7.92868 23.9828 8.23151 24.674 8.7013 25.1832C8.93353 25.4351 9.29905 25.7352 9.71637 25.7352C10.1347 25.7353 10.4993 25.4352 10.7324 25.1832ZM16.025 17.1055C16.1953 16.9745 16.2985 16.6825 16.3616 16.3152C13.3347 15.6308 11.6258 14.8913 10.7634 13.0486C10.2494 13.7269 9.4057 14.3536 8.30619 14.8554C6.71941 15.5785 4.84682 15.9356 2.98094 15.8793C2.99927 16.3722 3.05906 16.7286 3.23084 16.9018C3.37816 17.0505 3.67229 17.1224 4.12983 17.1225C4.24653 17.1225 4.35912 17.1656 4.44615 17.2433C4.53318 17.3211 4.58856 17.4281 4.60173 17.5441C4.95341 20.63 7.15335 22.9569 9.71914 22.9569C12.2851 22.9569 14.4857 20.63 14.8367 17.5441C14.8444 17.4762 14.8667 17.4107 14.9021 17.3522C14.9375 17.2937 14.9851 17.2436 15.0417 17.2053C15.0982 17.1668 15.1623 17.1409 15.2297 17.1295C15.297 17.118 15.3661 17.1211 15.4321 17.1388C15.8388 17.248 15.9788 17.1407 16.025 17.1055ZM32.6953 12.6846L32.6952 3.39683C32.6952 2.43133 31.9098 1.64572 30.9443 1.64572L17.2803 1.64579C16.3148 1.64579 15.5294 2.43133 15.5294 3.39683L15.5292 9.3692C16.6997 10.7082 17.4109 12.4592 17.4107 14.374C17.4107 14.3943 17.4109 14.4154 17.4109 14.4357H23.4984C23.6244 14.4357 23.7453 14.4858 23.8344 14.5749C23.9236 14.6641 23.9737 14.7849 23.9737 14.911V18.843L28.5405 14.5641C28.6285 14.4818 28.7445 14.4359 28.865 14.4357H30.9441C31.9096 14.4357 32.6953 13.6501 32.6953 12.6846ZM30.6137 4.95105C30.6136 5.07713 30.5635 5.19802 30.4743 5.28715C30.3851 5.37629 30.2642 5.42636 30.1381 5.42638L18.0865 5.42631C17.8244 5.42631 17.6109 5.21314 17.6109 4.95105C17.611 4.82501 17.6611 4.70416 17.7502 4.61504C17.8393 4.52592 17.9601 4.47583 18.0862 4.47578H30.1382C30.2007 4.47575 30.2625 4.48803 30.3202 4.5119C30.3778 4.53577 30.4303 4.57078 30.4744 4.61491C30.5186 4.65905 30.5536 4.71145 30.5775 4.76912C30.6014 4.8268 30.6137 4.88862 30.6137 4.95105ZM30.6137 7.71446C30.6137 7.77691 30.6014 7.83875 30.5775 7.89644C30.5536 7.95414 30.5186 8.00656 30.4744 8.0507C30.4302 8.09485 30.3778 8.12986 30.3201 8.15372C30.2624 8.17759 30.2005 8.18985 30.1381 8.18979H18.0865C17.8244 8.18979 17.6109 7.97727 17.6109 7.71452C17.611 7.58849 17.6611 7.46764 17.7502 7.37852C17.8393 7.2894 17.9601 7.23931 18.0862 7.23926H30.1382C30.2006 7.23923 30.2625 7.2515 30.3201 7.27537C30.3778 7.29924 30.4302 7.33424 30.4744 7.37837C30.5185 7.42249 30.5536 7.47489 30.5775 7.53256C30.6014 7.59022 30.6137 7.65204 30.6137 7.71446ZM27.9655 10.4779C27.9654 10.604 27.9153 10.7249 27.8262 10.814C27.737 10.9031 27.6162 10.9532 27.4901 10.9532L20.735 10.9531C20.6725 10.9532 20.6107 10.9409 20.553 10.9171C20.4953 10.8932 20.4429 10.8582 20.3988 10.8141C20.3546 10.7699 20.3196 10.7175 20.2958 10.6598C20.2719 10.6021 20.2596 10.5403 20.2597 10.4779C20.2597 10.4154 20.2719 10.3536 20.2958 10.296C20.3197 10.2383 20.3547 10.1859 20.3988 10.1417C20.443 10.0976 20.4954 10.0626 20.553 10.0387C20.6107 10.0148 20.6725 10.0026 20.735 10.0026L27.4902 10.0025C27.6162 10.0026 27.7371 10.0527 27.8262 10.1419C27.9153 10.231 27.9654 10.3519 27.9655 10.4779Z" fill="white"/>
</svg>
