<svg width="35" height="35" viewBox="0 0 35 35" fill="none" xmlns="http://www.w3.org/2000/svg">
<path d="M31.5004 25.1375C30.5786 24.3644 25.1723 20.9409 24.2737 21.098C23.8518 21.1729 23.5291 21.5326 22.6653 22.563C22.2659 23.0702 21.8272 23.5452 21.3533 23.9837C20.485 23.7739 19.6446 23.4624 18.8495 23.0555C15.731 21.5373 13.2118 19.0173 11.6945 15.8984C11.2876 15.1033 10.9761 14.2628 10.7663 13.3946C11.2048 12.9207 11.6798 12.482 12.187 12.0826C13.2164 11.2188 13.5771 10.8982 13.652 10.4742C13.8091 9.57348 10.3824 4.16926 9.6125 3.24746C9.28977 2.86566 8.99656 2.60938 8.62109 2.60938C7.53266 2.60938 2.60938 8.69703 2.60938 9.48594C2.60938 9.55027 2.71484 15.8879 10.7189 24.0311C18.8621 32.0352 25.1997 32.1406 25.2641 32.1406C26.053 32.1406 32.1406 27.2173 32.1406 26.1289C32.1406 25.7534 31.8843 25.4602 31.5004 25.1375ZM24.7578 16.3203H26.8672C26.8647 14.0833 25.9749 11.9387 24.3931 10.3569C22.8113 8.77508 20.6667 7.88532 18.4297 7.88281V9.99219C20.1075 9.99386 21.7161 10.6611 22.9025 11.8475C24.0889 13.0339 24.7561 14.6425 24.7578 16.3203Z" fill="white"/>
<path d="M30.0312 16.3203H32.1406C32.1364 12.6852 30.6906 9.20023 28.1202 6.62984C25.5498 4.05945 22.0648 2.61356 18.4297 2.60938V4.71875C21.5055 4.72238 24.4543 5.94585 26.6292 8.12078C28.8042 10.2957 30.0276 13.2445 30.0312 16.3203Z" fill="white"/>
</svg>
