<svg width="37" height="37" viewBox="0 0 37 37" fill="none" xmlns="http://www.w3.org/2000/svg">
<path d="M33.9857 27.01C32.9751 26.1625 27.0482 22.4093 26.063 22.5816C25.6005 22.6637 25.2467 23.0579 24.2998 24.1876C23.8618 24.7436 23.3809 25.2644 22.8614 25.7451C21.9095 25.5151 20.9882 25.1736 20.1164 24.7276C16.6977 23.0631 13.9359 20.3004 12.2724 16.8813C11.8264 16.0095 11.4849 15.0882 11.2549 14.1363C11.7356 13.6168 12.2564 13.1359 12.8124 12.6979C13.9409 11.751 14.3363 11.3995 14.4184 10.9347C14.5907 9.94722 10.8341 4.02259 9.99 3.01203C9.63619 2.59347 9.31475 2.3125 8.90312 2.3125C7.70987 2.3125 2.3125 8.98638 2.3125 9.85125C2.3125 9.92178 2.42812 16.8697 11.2029 25.7971C20.1303 34.5719 27.0782 34.6875 27.1487 34.6875C28.0136 34.6875 34.6875 29.2901 34.6875 28.0969C34.6875 27.6852 34.4065 27.3638 33.9857 27.01ZM26.5938 17.3438H28.9062C28.9035 14.8913 27.9281 12.5402 26.1939 10.8061C24.4598 9.07194 22.1087 8.0965 19.6562 8.09375V10.4062C21.4956 10.4081 23.2591 11.1396 24.5598 12.4402C25.8604 13.7409 26.5919 15.5044 26.5938 17.3438Z" fill="url(#paint0_linear_401_2934)"/>
<path d="M32.375 17.3438H34.6875C34.6829 13.3586 33.0978 9.53803 30.2799 6.72012C27.462 3.90221 23.6414 2.31709 19.6562 2.3125V4.625C23.0283 4.62898 26.261 5.97026 28.6454 8.35463C31.0297 10.739 32.371 13.9717 32.375 17.3438Z" fill="url(#paint1_linear_401_2934)"/>
<defs>
<linearGradient id="paint0_linear_401_2934" x1="2.3125" y1="18.5" x2="34.6875" y2="18.5" gradientUnits="userSpaceOnUse">
<stop stop-color="#00A573"/>
<stop offset="1" stop-color="#008EDE"/>
</linearGradient>
<linearGradient id="paint1_linear_401_2934" x1="19.6562" y1="9.82812" x2="34.6875" y2="9.82812" gradientUnits="userSpaceOnUse">
<stop stop-color="#00A573"/>
<stop offset="1" stop-color="#008EDE"/>
</linearGradient>
</defs>
</svg>
