<svg width="138" height="138" viewBox="0 0 138 138" fill="none" xmlns="http://www.w3.org/2000/svg">
<g clip-path="url(#clip0_193_2992)">
<g filter="url(#filter0_d_193_2992)">
<path d="M69 9C57.0701 9.01587 45.6334 13.762 37.1977 22.1977C28.762 30.6334 24.0159 42.0701 24 54C24 86.3063 65.925 126.769 67.7062 128.475C68.0527 128.812 68.5168 129 69 129C69.4832 129 69.9473 128.812 70.2937 128.475C72.075 126.769 114 86.3063 114 54C113.984 42.0701 109.238 30.6334 100.802 22.1977C92.3666 13.762 80.9299 9.01587 69 9ZM69 74.625C64.9208 74.625 60.9331 73.4154 57.5414 71.1491C54.1496 68.8828 51.506 65.6616 49.945 61.8928C48.3839 58.1241 47.9755 53.9771 48.7713 49.9763C49.5671 45.9754 51.5315 42.3004 54.4159 39.4159C57.3004 36.5315 60.9754 34.5671 64.9763 33.7713C68.9771 32.9755 73.1241 33.3839 76.8928 34.945C80.6616 36.506 83.8828 39.1496 86.1491 42.5414C88.4154 45.9331 89.625 49.9208 89.625 54C89.6215 59.469 87.4474 64.7131 83.5802 68.5802C79.7131 72.4474 74.469 74.6215 69 74.625Z" fill="url(#paint0_linear_193_2992)"/>
</g>
<circle cx="69" cy="53" r="29" fill="white"/>
<path d="M48.0684 59.8933V59.5064H48.2732V58.3001H49.1912C50.0522 58.3001 50.5871 58.854 50.5871 59.6581C50.5871 60.4661 50.0522 61.0161 49.1912 61.0161H48.2732V59.8933H48.0684ZM48.7853 60.5306H49.1684C49.7678 60.5306 50.075 60.1854 50.075 59.6581C50.075 59.1309 49.7678 58.7857 49.1684 58.7857H48.7853V59.5064H49.3429V59.8933H48.7853V60.5306Z" fill="#003959"/>
<path d="M51.34 61.0161L52.3604 58.3001H52.9445L53.9649 61.0161H53.3997L53.1759 60.3675H52.129L51.9052 61.0161H51.34ZM52.2959 59.8971H53.009L52.7663 59.2181L52.6676 58.8881H52.6373L52.5387 59.2181L52.2959 59.8971ZM52.6525 57.8639L52.4742 58.0763H52.0493L52.4476 57.5756H52.8573L53.2556 58.0763H52.8307L52.6525 57.8639ZM53.3656 57.2456H53.8625L53.5325 57.6894H53.1114L53.3656 57.2456Z" fill="#003959"/>
<path d="M55.8062 61.0161H55.2941V58.7857H54.5354V58.3001H56.5648V58.7857H55.8062V61.0161Z" fill="#003959"/>
<path d="M59.1281 61.0161V58.3001H59.7236L60.8161 60.1209H60.8464L60.8161 59.5974V58.3001H61.3244V61.0161H60.7857L59.6326 59.0929H59.6022L59.6326 59.6164V61.0161H59.1281Z" fill="#003959"/>
<path d="M63.4132 57.8639L63.2349 58.0763H62.81L63.2083 57.5756H63.618L64.0163 58.0763H63.5914L63.4132 57.8639ZM64.2742 58.7857H63.0642V59.4154H64.1529V59.9009H63.0642V60.5306H64.2742V61.0161H62.5521V58.3001H64.2742V58.7857ZM63.5801 57.2456H64.077L64.3311 57.6894H63.9101L63.5801 57.2456Z" fill="#003959"/>
<path d="M65.4279 61.0161V58.3001H66.0234L67.1159 60.1209H67.1462L67.1159 59.5974V58.3001H67.6242V61.0161H67.0855L65.9324 59.0929H65.902L65.9324 59.6164V61.0161H65.4279Z" fill="#003959"/>
<path d="M70.3682 61.0161V58.3001H70.8803V60.5306H72.0296V61.0161H70.3682Z" fill="#003959"/>
<path d="M73.6121 57.477H74.109L74.4239 58.0384H74.0028L73.6121 57.477ZM72.8497 61.0161L73.8701 58.3001H74.4542L75.4746 61.0161H74.9094L74.6856 60.3675H73.6387L73.4149 61.0161H72.8497ZM73.8056 59.8971H74.5187L74.2759 59.2181L74.1773 58.8881H74.147L74.0483 59.2181L73.8056 59.8971Z" fill="#003959"/>
<path d="M77.6872 61.0768C76.8792 61.0768 76.2685 60.4509 76.2685 59.6581C76.2685 58.8653 76.8792 58.2394 77.6872 58.2394C78.4952 58.2394 79.1059 58.8653 79.1059 59.6581C79.1059 60.4509 78.4952 61.0768 77.6872 61.0768ZM77.6872 60.5913C78.1917 60.5913 78.5938 60.2157 78.5938 59.6581C78.5938 59.1005 78.1917 58.725 77.6872 58.725C77.1827 58.725 76.7806 59.1005 76.7806 59.6581C76.7806 60.2157 77.1827 60.5913 77.6872 60.5913Z" fill="#003959"/>
<path d="M83.6558 60.2347L84.0199 60.5799C83.7506 60.9023 83.3865 61.0768 82.9351 61.0768C82.1309 61.0768 81.5126 60.4585 81.5126 59.6581C81.5126 58.8578 82.1309 58.2394 82.9351 58.2394C83.3713 58.2394 83.6937 58.395 83.9517 58.6833L83.5913 59.0322C83.4282 58.8464 83.2271 58.725 82.9389 58.725C82.4343 58.725 82.0247 59.0929 82.0247 59.6581C82.0247 60.2233 82.4343 60.5913 82.9389 60.5913C83.2423 60.5913 83.4737 60.4623 83.6558 60.2347Z" fill="#003959"/>
<path d="M84.8862 61.0161L85.9066 58.3001H86.4908L87.5112 61.0161H86.946L86.7222 60.3675H85.6752L85.4514 61.0161H84.8862ZM85.8421 59.8971H86.5553L86.3125 59.2181L86.2139 58.8881H86.1835L86.0849 59.2181L85.8421 59.8971Z" fill="#003959"/>
<path d="M88.5119 61.0161V58.3001H89.024V61.0161H88.5119Z" fill="#003959"/>
<path fill-rule="evenodd" clip-rule="evenodd" d="M65.8917 47.0231L67.7883 47.571L73.3307 50.8374L67.8111 56.0236L74.7215 49.5309L77.4542 51.1516L80.4536 48.6668H80.6011H85.3216L90 52.5444H84.7105L80.5168 49.0672L77.7741 51.3414L77.7772 51.3432L76.3231 52.5444L76.4496 52.7973L77.9458 51.575V56.7381H72.0662L72.7195 55.8741L74.1104 53.9775L72.0873 54.9469L71.7923 53.4928L67.3035 56.7381H67.0507L67.0507 56.7381H63.5314L60.7496 55.7898L63.1942 53.851L58.4737 54.5886L61.6347 53.4506L64.1215 49.7205L62.6041 50.2474L64.2479 47.7185L62.7938 48.2664L59.6117 51.1535H58.1576L59.991 49.7205L57.5675 50.6056L48.4004 56.7381H48L55.987 50.437L58.8741 48.1611L59.4431 48.8144L59.4009 47.571L62.9835 45L65.8917 47.0231ZM83.0878 51.575L84.6472 52.8605H89.1992V56.7592H83.0878V56.7381V54.2936V51.575ZM85.3848 55.3051H86.017V54.4832H85.3848V55.3051ZM85.3848 54.146H86.017V53.3242H85.3848V54.146ZM86.291 55.3051H86.9232V54.4832H86.291V55.3051ZM86.291 54.146H86.9232V53.3242H86.291V54.146ZM79.8424 53.4717H81.1911V56.7592H79.8424V53.4717Z" fill="url(#paint1_linear_193_2992)"/>
</g>
<defs>
<filter id="filter0_d_193_2992" x="14" y="1" width="114" height="144" filterUnits="userSpaceOnUse" color-interpolation-filters="sRGB">
<feFlood flood-opacity="0" result="BackgroundImageFix"/>
<feColorMatrix in="SourceAlpha" type="matrix" values="0 0 0 0 0 0 0 0 0 0 0 0 0 0 0 0 0 0 127 0" result="hardAlpha"/>
<feOffset dx="2" dy="4"/>
<feGaussianBlur stdDeviation="6"/>
<feComposite in2="hardAlpha" operator="out"/>
<feColorMatrix type="matrix" values="0 0 0 0 0 0 0 0 0 0 0 0 0 0 0 0 0 0 0.25 0"/>
<feBlend mode="normal" in2="BackgroundImageFix" result="effect1_dropShadow_193_2992"/>
<feBlend mode="normal" in="SourceGraphic" in2="effect1_dropShadow_193_2992" result="shape"/>
</filter>
<linearGradient id="paint0_linear_193_2992" x1="24" y1="69.0001" x2="114" y2="69.0001" gradientUnits="userSpaceOnUse">
<stop stop-color="#00A573"/>
<stop offset="1" stop-color="#008EDE"/>
</linearGradient>
<linearGradient id="paint1_linear_193_2992" x1="48" y1="50.8796" x2="90" y2="50.8796" gradientUnits="userSpaceOnUse">
<stop stop-color="#00A573"/>
<stop offset="1" stop-color="#008EDE"/>
</linearGradient>
<clipPath id="clip0_193_2992">
<rect width="138" height="138" fill="white"/>
</clipPath>
</defs>
</svg>
