<svg width="24" height="24" viewBox="0 0 24 24" fill="none" xmlns="http://www.w3.org/2000/svg">
<path d="M20.7756 7.00761C19.6325 7.00761 18.5777 6.62891 17.7307 5.99005C16.7593 5.25768 16.0614 4.1834 15.8149 2.94519C15.7531 2.63385 15.7206 2.3174 15.7179 2H12.4524V10.9229L12.4485 15.8104C12.4485 17.1171 11.5976 18.225 10.4181 18.6147C10.0648 18.7315 9.69264 18.7809 9.32109 18.7602C8.82972 18.7332 8.36925 18.585 7.96903 18.3455C7.11735 17.8362 6.53991 16.9121 6.52426 15.855C6.49961 14.2029 7.83524 12.8559 9.48618 12.8559C9.81207 12.8559 10.125 12.9092 10.4181 13.0058V9.6902C10.109 9.64443 9.79446 9.62056 9.4764 9.62056C7.66936 9.62056 5.97929 10.3717 4.77121 11.7249C3.8581 12.7476 3.31039 14.0523 3.22589 15.4204C3.11517 17.2177 3.77281 18.9261 5.04819 20.1866C5.23558 20.3717 5.43237 20.5434 5.63815 20.7019C6.73161 21.5434 8.0684 21.9995 9.4764 21.9995C9.79446 21.9995 10.109 21.9761 10.4181 21.9303C11.7333 21.7355 12.9469 21.1334 13.9046 20.1866C15.0814 19.0235 15.7316 17.4794 15.7387 15.8359L15.7218 8.53728C16.2846 8.97132 16.901 9.33083 17.5559 9.60687C18.5805 10.0392 19.6669 10.2583 20.785 10.2579V7.00683C20.7858 7.00761 20.7764 7.00761 20.7756 7.00761Z" fill="white"/>
</svg>
